<svg xmlns="http://www.w3.org/2000/svg" viewBox="0 0 512 512"><!--! Font Awesome Free 6.4.2 by @fontawesome - https://fontawesome.com License - https://fontawesome.com/license (Commercial License) Copyright 2023 Fonticons, Inc. --><path fill="#b91c1c" d="M256 0c4.6 0 9.2 1 13.4 2.9L457.7 82.8c22 9.3 38.4 31 38.3 57.2c-.5 99.2-27.4 196.3-95.1 247.6c-30.9 23.4-76.1 60.4-144.9 91.4c-6.4 2.9-13.7 2.9-20.1 0c-68.8-31-114-68-144.9-91.4C22.4 336.3-4.5 239.2-5 140c-.1-26.2 16.3-47.9 38.3-57.2L242.6 2.9C246.8 1 251.4 0 256 0z"/><path fill="#ef4444" d="M256 0v512c68.8-31 114-68 144.9-91.4c67.7-51.3 94.6-148.4 95.1-247.6c.1-26.2-16.3-47.9-38.3-57.2L269.4 2.9C265.2 1 260.6 0 256 0z"/></svg>